<?xml version="1.0" encoding="UTF-8" standalone="no"?><!DOCTYPE svg PUBLIC "-//W3C//DTD SVG 1.1//EN" "http://www.w3.org/Graphics/SVG/1.1/DTD/svg11.dtd"><svg width="100%" height="100%" viewBox="0 0 40 44" version="1.1" xmlns="http://www.w3.org/2000/svg" xmlns:xlink="http://www.w3.org/1999/xlink" xml:space="preserve" xmlns:serif="http://www.serif.com/" style="fill-rule:evenodd;clip-rule:evenodd;"><path d="M1.245,14.406l0,-0.003c0.086,-1.396 1.021,-2.866 2.475,-3.8c2.992,-1.84 5.962,-3.718 8.846,-5.542c1.894,-1.198 3.749,-2.371 5.549,-3.495l0.005,-0.003c1.188,-0.751 2.572,-0.751 3.76,0l0.005,0.003c1.92,1.199 3.905,2.451 5.929,3.729c2.767,1.745 5.609,3.538 8.469,5.31c1.444,0.906 2.386,2.395 2.472,3.798l0,0.003c0.327,5.078 0.327,10.11 0,15.188l0,0.002c-0.087,1.41 -1.011,2.894 -2.468,3.797c-2.994,1.841 -5.967,3.721 -8.854,5.547c-1.893,1.197 -3.749,2.37 -5.548,3.494l-0,-0l-0.005,0.003c-1.188,0.751 -2.572,0.751 -3.76,-0l-0.005,-0.003c-1.799,-1.124 -3.655,-2.297 -5.548,-3.494c-2.886,-1.825 -5.858,-3.705 -8.851,-5.546c-1.443,-0.906 -2.385,-2.394 -2.471,-3.797l-0,-0.003c-0.327,-5.078 -0.327,-10.11 -0,-15.188Z" style="fill:#a70074;fill-rule:nonzero;stroke:#fff;stroke-width:2px;"/><path d="M10.846,18.531c0.552,0 1,-0.447 1,-1c0,-0.552 -0.448,-1 -1,-1l0,2Zm-2.712,-2c-0.552,0 -1,0.448 -1,1c0,0.553 0.448,1 1,1l0,-2Zm2.712,0l-2.712,0l0,2l2.712,0l0,-2Z" style="fill:#fff;fill-rule:nonzero;"/><path d="M16.27,22.656c0.552,0 1,-0.447 1,-1c-0,-0.552 -0.448,-1 -1,-1l-0,2Zm-8.136,-2c-0.552,0 -1,0.448 -1,1c0,0.553 0.448,1 1,1l0,-2Zm8.136,0l-8.136,0l0,2l8.136,0l-0,-2Z" style="fill:#fff;fill-rule:nonzero;"/><path d="M19.66,26.781c0.552,0 1,-0.447 1,-1c-0,-0.552 -0.448,-1 -1,-1l-0,2Zm-11.526,-2c-0.552,0 -1,0.448 -1,1c0,0.553 0.448,1 1,1l0,-2Zm11.526,0l-11.526,0l0,2l11.526,0l-0,-2Z" style="fill:#fff;fill-rule:nonzero;"/><path d="M31.185,30.906c0.552,0 1,-0.447 1,-1c0,-0.552 -0.448,-1 -1,-1l-0,2Zm-23.051,-2c-0.552,0 -1,0.448 -1,1c0,0.553 0.448,1 1,1l0,-2Zm23.051,0l-23.051,0l0,2l23.051,0l-0,-2Z" style="fill:#fff;fill-rule:nonzero;"/><path d="M26.439,14.406c0.552,0 1,-0.447 1,-1c-0,-0.552 -0.448,-1 -1,-1l-0,2Zm-1.356,-2c-0.552,0 -1,0.448 -1,1c-0,0.553 0.448,1 1,1l-0,-2Zm1.356,0l-1.356,0l-0,2l1.356,0l-0,-2Z" style="fill:#fff;fill-rule:nonzero;"/><path d="M29.151,18.531c0.552,0 1,-0.447 1,-1c-0,-0.552 -0.448,-1 -1,-1l-0,2Zm-4.068,-2c-0.552,0 -1,0.448 -1,1c0,0.553 0.448,1 1,1l0,-2Zm4.068,0l-4.068,0l0,2l4.068,0l-0,-2Z" style="fill:#fff;fill-rule:nonzero;"/><path d="M29.151,22.656c0.552,0 1,-0.447 1,-1c-0,-0.552 -0.448,-1 -1,-1l-0,2Zm-4.068,-2c-0.552,0 -1,0.448 -1,1c-0,0.553 0.448,1 1,1l-0,-2Zm4.068,0l-4.068,0l-0,2l4.068,0l-0,-2Z" style="fill:#fff;fill-rule:nonzero;"/><path d="M31.185,26.781c0.552,0 0.999,-0.447 0.999,-1c0,-0.552 -0.447,-1 -1,-1l0,2Zm-6.101,-2c-0.553,0 -1,0.448 -1,1c-0,0.553 0.447,1 1,1l-0,-2Zm6.101,0l-6.101,0l-0,2l6.101,0l0,-2Z" style="fill:#fff;fill-rule:nonzero;"/></svg>